<svg width="56" height="56" viewBox="0 0 56 56" fill="none" xmlns="http://www.w3.org/2000/svg">
<path d="M25.6667 41.9998L32.2351 6.57516C32.4731 5.29649 33.7097 4.45649 34.9861 4.71316L44.3334 6.58216" stroke="white" stroke-width="3.5" stroke-linecap="round" stroke-linejoin="round"/>
<path d="M41.5564 29.4927C37.8114 33.0883 31.7424 33.0883 27.9998 29.495C24.2571 25.9017 18.1881 25.9017 14.4431 29.4973" stroke="white" stroke-width="3.5" stroke-linecap="round" stroke-linejoin="round"/>
<path fill-rule="evenodd" clip-rule="evenodd" d="M14.4293 29.3907C14.1423 26.4507 14 23.499 14 20.545V20.1087C14 19.1613 14.2217 18.2257 14.644 17.3763V17.3763C15.68 15.3067 17.794 14 20.1087 14H35.8913C38.206 14 40.32 15.3067 41.356 17.3763V17.3763C41.7783 18.2257 42 19.1613 42 20.1087V20.545C42 23.499 41.8577 26.4483 41.5707 29.3883L40.075 44.7837C39.844 47.1753 37.835 49 35.4317 49H20.5683C18.165 49 16.156 47.1753 15.9227 44.7837L14.4293 29.3907V29.3907Z" stroke="white" stroke-width="3.5" stroke-linecap="round" stroke-linejoin="round"/>
</svg>
