<svg width="56" height="56" viewBox="0 0 56 56" fill="none" xmlns="http://www.w3.org/2000/svg">
<path d="M48.5159 22.2214C50.3593 24.0648 50.3593 27.0536 48.5159 28.897C46.6725 30.7404 43.6837 30.7404 41.8403 28.897C39.9969 27.0536 39.9969 24.0648 41.8403 22.2214C43.6837 20.378 46.6725 20.378 48.5159 22.2214" stroke="white" stroke-width="3.5" stroke-linecap="round" stroke-linejoin="round"/>
<path d="M33.1393 13.7953C35.9777 16.6338 35.9777 21.2359 33.1393 24.0743C30.3008 26.9128 25.6988 26.9128 22.8603 24.0743C20.0218 21.2359 20.0218 16.6338 22.8603 13.7953C25.6987 10.9569 30.3008 10.9569 33.1393 13.7953" stroke="white" stroke-width="3.5" stroke-linecap="round" stroke-linejoin="round"/>
<path d="M14.1597 22.2214C16.0031 24.0648 16.0031 27.0536 14.1597 28.897C12.3163 30.7404 9.32752 30.7404 7.48412 28.897C5.64071 27.0536 5.64071 24.0648 7.48412 22.2214C9.32752 20.378 12.3163 20.378 14.1597 22.2214" stroke="white" stroke-width="3.5" stroke-linecap="round" stroke-linejoin="round"/>
<path d="M53.6667 44.333V41.7757C53.6667 38.5534 51.0557 35.9424 47.8334 35.9424H45.9644" stroke="white" stroke-width="3.5" stroke-linecap="round" stroke-linejoin="round"/>
<path d="M2.33325 44.333V41.7757C2.33325 38.5534 4.94425 35.9424 8.16659 35.9424H10.0356" stroke="white" stroke-width="3.5" stroke-linecap="round" stroke-linejoin="round"/>
<path d="M40.4577 44.333V40.5973C40.4577 36.087 36.8014 32.4307 32.291 32.4307H23.7067C19.1964 32.4307 15.54 36.087 15.54 40.5973V44.333" stroke="white" stroke-width="3.5" stroke-linecap="round" stroke-linejoin="round"/>
</svg>
