<svg width="56" height="56" viewBox="0 0 56 56" fill="none" xmlns="http://www.w3.org/2000/svg">
<path fill-rule="evenodd" clip-rule="evenodd" d="M11.3262 6.99219H16.3283C27.9311 6.99219 37.3371 16.3981 37.3371 28.0009V35.8022C37.3371 36.6505 36.6494 37.3382 35.8011 37.3382H27.9998C16.397 37.3382 6.99109 27.9322 6.99109 16.3294V11.3273C6.99109 10.1776 7.44782 9.07491 8.26082 8.26192C9.07381 7.44892 10.1765 6.99219 11.3262 6.99219Z" stroke="white" stroke-width="3.5" stroke-linecap="round" stroke-linejoin="round"/>
<path d="M14.3241 14.3074C14.2473 14.3077 14.1853 14.3701 14.1855 14.4468C14.1857 14.5236 14.2481 14.5857 14.3248 14.5856C14.4016 14.5855 14.4637 14.5232 14.4637 14.4464C14.4639 14.4094 14.4493 14.3738 14.423 14.3477C14.3968 14.3215 14.3611 14.307 14.3241 14.3074" stroke="white" stroke-width="3.5" stroke-linecap="round" stroke-linejoin="round"/>
<path d="M22.1642 15.145V15.145C22.1642 19.0126 19.0289 22.1479 15.1613 22.1479V22.1479" stroke="white" stroke-width="3.5" stroke-linecap="round" stroke-linejoin="round"/>
<path d="M28.6674 11.0225H35.8695C36.8701 11.0225 37.8296 11.4199 38.5371 12.1274V12.1274C39.2446 12.8349 39.6421 13.7945 39.6421 14.795C39.6421 15.7956 39.2446 16.7552 38.5371 17.4627L35.8178 20.182" stroke="white" stroke-width="3.5" stroke-linecap="round" stroke-linejoin="round"/>
<path d="M11.0226 28.6675V35.8696C11.0226 36.8702 11.4201 37.8298 12.1275 38.5373V38.5373C12.835 39.2448 13.7946 39.6422 14.7952 39.6422C15.7957 39.6422 16.7553 39.2448 17.4628 38.5373L20.1821 35.8179" stroke="white" stroke-width="3.5" stroke-linecap="round" stroke-linejoin="round"/>
<path fill-rule="evenodd" clip-rule="evenodd" d="M42.4942 42.4942H43.7663C45.7326 42.4942 47.6183 41.7131 49.0087 40.3228C47.7682 36.6011 43.9505 34.3856 40.1037 35.155C37.6065 35.6544 35.6544 37.6065 35.155 40.1037C34.3856 43.9505 36.6011 47.7682 40.3228 49.0087C41.7132 47.6183 42.4943 45.7326 42.4943 43.7663L42.4942 42.4942Z" stroke="white" stroke-width="3.5" stroke-linecap="round" stroke-linejoin="round"/>
</svg>
