<svg width="56" height="56" viewBox="0 0 56 56" fill="none" xmlns="http://www.w3.org/2000/svg">
<path d="M10.5 24.5V30.3333" stroke="white" stroke-width="3.5" stroke-linecap="round" stroke-linejoin="round"/>
<rect x="7" y="30.3335" width="7" height="18.6667" rx="3.5" stroke="white" stroke-width="3.5" stroke-linecap="round" stroke-linejoin="round"/>
<path d="M10.5 17.5V7" stroke="white" stroke-width="3.5" stroke-linecap="round" stroke-linejoin="round"/>
<path d="M16.3333 7V19.8333C16.3333 22.4107 14.244 24.5 11.6666 24.5H9.33329C6.75596 24.5 4.66663 22.4107 4.66663 19.8333V7" stroke="white" stroke-width="3.5" stroke-linecap="round" stroke-linejoin="round"/>
<path d="M16.3333 17.5002H4.66663" stroke="white" stroke-width="3.5" stroke-linecap="round" stroke-linejoin="round"/>
<path d="M29.1667 23.3335V30.3335" stroke="white" stroke-width="3.5" stroke-linecap="round" stroke-linejoin="round"/>
<rect x="25.6666" y="30.3335" width="7" height="18.6667" rx="3.5" stroke="white" stroke-width="3.5" stroke-linecap="round" stroke-linejoin="round"/>
<ellipse cx="29.1667" cy="15.1667" rx="5.83333" ry="8.16667" stroke="white" stroke-width="3.5" stroke-linecap="round" stroke-linejoin="round"/>
<path fill-rule="evenodd" clip-rule="evenodd" d="M51.3333 7.02144L51.3119 7C46.1691 7 42 13.9485 42 22.5198V34.0667C42 34.5821 42.4179 35 42.9333 35H51.3333L51.3119 7.02144H51.3333Z" stroke="white" stroke-width="3.5" stroke-linecap="round" stroke-linejoin="round"/>
<path fill-rule="evenodd" clip-rule="evenodd" d="M44.3334 35H51.3334V45.5C51.3334 47.433 49.7664 49 47.8334 49V49C45.9004 49 44.3334 47.433 44.3334 45.5V35Z" stroke="white" stroke-width="3.5" stroke-linecap="round" stroke-linejoin="round"/>
</svg>
