<svg width="24" height="24" viewBox="0 0 24 24" fill="none" xmlns="http://www.w3.org/2000/svg">
<path fill-rule="evenodd" clip-rule="evenodd" d="M16 14.9922C16.0038 18.2934 13.3401 20.9775 10.039 20.999C6.73784 21.0204 4.03949 18.3711 4.00043 15.0701C3.96137 11.7691 6.59628 9.05667 9.897 9H10.0038V12.5H9.95707C9.19127 12.5126 8.4734 12.8752 8.00878 13.484C7.54416 14.0929 7.38396 14.881 7.574 15.623C7.78477 16.4754 8.43307 17.1513 9.27594 17.3975C10.0344 17.6232 10.855 17.4778 11.4897 17.0052C12.1244 16.5325 12.4989 15.7881 12.5 14.9967H12.5038V3.5C12.5038 3.22386 12.7276 3 13.0038 3H16.0038V3.17208C16.0038 5.19891 17.521 6.90479 19.534 7.14134C19.793 7.16194 19.9944 7.37525 20 7.635V10.215C20.0015 10.3536 19.9452 10.4866 19.8445 10.582C19.7439 10.6773 19.608 10.7264 19.4696 10.7173C18.2162 10.6019 17.018 10.1469 16.0038 9.4014V15L16 14.9922Z" stroke="white" stroke-width="1.5" stroke-linecap="round" stroke-linejoin="round"/>
</svg>
