<svg width="24" height="24" viewBox="0 0 24 24" fill="none" xmlns="http://www.w3.org/2000/svg">
<path fill-rule="evenodd" clip-rule="evenodd" d="M13.5 14H16.2498C16.4792 14 16.6792 13.8439 16.7348 13.6213L17.4848 10.6213C17.5222 10.4719 17.4886 10.3137 17.3939 10.1923C17.2991 10.0709 17.1537 10 16.9998 10H13.5V8C13.5 7.44772 13.9477 7 14.5 7H17C17.2761 7 17.5 6.77614 17.5 6.5V3.5C17.5 3.22386 17.2761 3 17 3H14.5C11.7386 3 9.5 5.23858 9.5 8V10H7C6.72386 10 6.5 10.2239 6.5 10.5V13.5C6.5 13.7761 6.72386 14 7 14H9.5V20.5C9.5 20.7761 9.72386 21 10 21H13C13.2761 21 13.5 20.7761 13.5 20.5V14Z" stroke="white" stroke-width="1.5" stroke-linecap="round" stroke-linejoin="round"/>
</svg>
